ffmpeg version N-73165-gf1e1730 Copyright (c) 2000-2015 the FFmpeg developers
  built with gcc 4.9.2 (GCC)
  configuration: --enable-gpl --enable-version3 --disable-w32threads --enable-avisynth --enable-bzlib --enable-fontconfig --enable-frei0r --enable-gnutls --enable-iconv --enable-libass --enable-libbluray --enable-libbs2b --enable-libcaca --enable-libdcadec --enable-libfreetype --enable-libgme --enable-libgsm --enable-libilbc --enable-libmodplug --enable-libmp3lame --enable-libopencore-amrnb --enable-libopencore-amrwb --enable-libopenjpeg --enable-libopus --enable-librtmp --enable-libschroedinger --enable-libsoxr --enable-libspeex --enable-libtheora --enable-libtwolame --enable-libvidstab --enable-libvo-aacenc --enable-libvo-amrwbenc --enable-libvorbis --enable-libvpx --enable-libwavpack --enable-libwebp --enable-libx264 --enable-libx265 --enable-libxavs --enable-libxvid --enable-lzma --enable-decklink --enable-zlib
  libavutil      54. 27.100 / 54. 27.100
  libavcodec     56. 45.100 / 56. 45.100
  libavformat    56. 38.102 / 56. 38.102
  libavdevice    56.  4.100 / 56.  4.100
  libavfilter     5. 18.100 /  5. 18.100
  libswscale      3.  1.101 /  3.  1.101
  libswresample   1.  2.100 /  1.  2.100
  libpostproc    53.  3.100 / 53.  3.100
Input #0, rawvideo, from 'pipe:':
  Duration: N/A, start: 0.000000, bitrate: 165888 kb/s
    Stream #0:0: Video: rawvideo (RGB[24] / 0x18424752), rgb24, 640x360, 165888 kb/s, 30 tbr, 30 tbn, 30 tbc
[libx264 @ 0000000002f9bfe0] using cpu capabilities: MMX2 SSE2Fast SSSE3 SSE4.2 AVX FMA3 AVX2 LZCNT BMI2
[libx264 @ 0000000002f9bfe0] profile High, level 3.0
[libx264 @ 0000000002f9bfe0] 264 - core 146 r2538 121396c - H.264/MPEG-4 AVC codec - Copyleft 2003-2015 - http://www.videolan.org/x264.html - options: cabac=1 ref=3 deblock=1:0:0 analyse=0x3:0x113 me=hex subme=7 psy=1 psy_rd=1.00:0.00 mixed_ref=1 me_range=16 chroma_me=1 trellis=1 8x8dct=1 cqm=0 deadzone=21,11 fast_pskip=1 chroma_qp_offset=-2 threads=12 lookahead_threads=2 sliced_threads=0 nr=0 decimate=1 interlaced=0 bluray_compat=0 constrained_intra=0 bframes=3 b_pyramid=2 b_adapt=1 b_bias=0 direct=1 weightb=1 open_gop=0 weightp=2 keyint=250 keyint_min=25 scenecut=40 intra_refresh=0 rc_lookahead=40 rc=crf mbtree=1 crf=15.0 qcomp=0.60 qpmin=0 qpmax=69 qpstep=4 ip_ratio=1.40 aq=1:1.00
Output #0, mp4, to 'C:\Users\Jonghwa\Documents\GitHub\2015RnE\ARDroneForRnE_For_Success\20151020205343.mp4':
  Metadata:
    comment         : Exported using VideoExport for Processing - https://github.com/hamoid/VideoExport-for-Processing
    encoder         : Lavf56.38.102
    Stream #0:0: Video: h264 (libx264) ([33][0][0][0] / 0x0021), yuv420p, 640x360, q=-1--1, 30 fps, 15360 tbn, 30 tbc
    Metadata:
      encoder         : Lavc56.45.100 libx264
Stream mapping:
  Stream #0:0 -> #0:0 (rawvideo (native) -> h264 (libx264))
frame=   12 fps=0.0 q=0.0 size=       0kB time=00:00:00.00 bitrate=N/A    frame=   23 fps= 22 q=0.0 size=       0kB time=00:00:00.00 bitrate=N/A    frame=   34 fps= 21 q=0.0 size=       0kB time=00:00:00.00 bitrate=N/A    frame=   44 fps= 21 q=0.0 size=       0kB time=00:00:00.00 bitrate=N/A    frame=   54 fps= 21 q=0.0 size=       0kB time=00:00:00.00 bitrate=N/A    frame=   64 fps= 20 q=21.0 size=     118kB time=00:00:00.20 bitrate=4843.2kbits/s    frame=   75 fps= 20 q=21.0 size=     225kB time=00:00:00.56 bitrate=3253.3kbits/s    frame=   85 fps= 20 q=21.0 size=     327kB time=00:00:00.90 bitrate=2975.0kbits/s    frame=   93 fps= 20 q=21.0 size=     413kB time=00:00:01.16 bitrate=2899.9kbits/s    frame=  104 fps= 20 q=21.0 size=     527kB time=00:00:01.53 bitrate=2815.9kbits/s    frame=  114 fps= 20 q=21.0 size=     630kB time=00:00:01.86 bitrate=2764.0kbits/s    frame=  125 fps= 20 q=21.0 size=     736kB time=00:00:02.23 bitrate=2698.5kbits/s    frame=  136 fps= 20 q=21.0 size=     858kB time=00:00:02.60 bitrate=2702.4kbits/s    frame=  147 fps= 20 q=21.0 size=     979kB time=00:00:02.96 bitrate=2702.6kbits/s    frame=  157 fps= 20 q=21.0 size=    1095kB time=00:00:03.30 bitrate=2718.1kbits/s    frame=  169 fps= 20 q=21.0 size=    1218kB time=00:00:03.70 bitrate=2697.3kbits/s    frame=  179 fps= 20 q=21.0 size=    1343kB time=00:00:04.03 bitrate=2728.0kbits/s    frame=  190 fps= 20 q=21.0 size=    1460kB time=00:00:04.40 bitrate=2717.8kbits/s    frame=  202 fps= 20 q=21.0 size=    1587kB time=00:00:04.80 bitrate=2708.4kbits/s    frame=  213 fps= 20 q=21.0 size=    1704kB time=00:00:05.16 bitrate=2702.4kbits/s    frame=  225 fps= 20 q=21.0 size=    1832kB time=00:00:05.56 bitrate=2696.6kbits/s    frame=  236 fps= 20 q=21.0 size=    1942kB time=00:00:05.93 bitrate=2681.5kbits/s    frame=  248 fps= 20 q=21.0 size=    2075kB time=00:00:06.33 bitrate=2683.4kbits/s    frame=  259 fps= 20 q=21.0 size=    2176kB time=00:00:06.70 bitrate=2660.1kbits/s    frame=  271 fps= 21 q=21.0 size=    2304kB time=00:00:07.10 bitrate=2658.4kbits/s    frame=  280 fps= 20 q=21.0 size=    2388kB time=00:00:07.40 bitrate=2643.1kbits/s    frame=  282 fps= 20 q=21.0 size=    2404kB time=00:00:07.46 bitrate=2637.9kbits/s    frame=  296 fps= 20 q=18.0 size=    2564kB time=00:00:07.93 bitrate=2648.0kbits/s    frame=  310 fps= 20 q=21.0 size=    2722kB time=00:00:08.40 bitrate=2654.9kbits/s    frame=  323 fps= 20 q=21.0 size=    2869kB time=00:00:08.83 bitrate=2660.5kbits/s    frame=  335 fps= 21 q=21.0 size=    2997kB time=00:00:09.23 bitrate=2658.9kbits/s    frame=  349 fps= 21 q=21.0 size=    3159kB time=00:00:09.70 bitrate=2667.9kbits/s    frame=  361 fps= 21 q=21.0 size=    3282kB time=00:00:10.10 bitrate=2662.4kbits/s    frame=  374 fps= 21 q=21.0 size=    3426kB time=00:00:10.53 bitrate=2664.6kbits/s    frame=  386 fps= 21 q=21.0 size=    3556kB time=00:00:10.93 bitrate=2664.7kbits/s    frame=  397 fps= 21 q=21.0 size=    3664kB time=00:00:11.30 bitrate=2656.0kbits/s    frame=  408 fps= 21 q=21.0 size=    3807kB time=00:00:11.66 bitrate=2673.2kbits/s    frame=  421 fps= 21 q=21.0 size=    3965kB time=00:00:12.10 bitrate=2684.6kbits/s    frame=  434 fps= 21 q=21.0 size=    4108kB time=00:00:12.53 bitrate=2684.9kbits/s    frame=  448 fps= 21 q=21.0 size=    4281kB time=00:00:13.00 bitrate=2697.5kbits/s    frame=  461 fps= 21 q=21.0 size=    4448kB time=00:00:13.43 bitrate=2712.3kbits/s    frame=  474 fps= 21 q=21.0 size=    4589kB time=00:00:13.86 bitrate=2710.9kbits/s    frame=  487 fps= 21 q=21.0 size=    4738kB time=00:00:14.30 bitrate=2714.3kbits/s    frame=  488 fps= 21 q=21.0 size=    4744kB time=00:00:14.33 bitrate=2711.4kbits/s    